<svg width="256" height="273.493" xmlns="http://www.w3.org/2000/svg" preserveAspectRatio="xMidYMid">

 <g>
  <title>Layer 1</title>
  <g id="svg_1">
   <path id="svg_2" fill="#722ed1" d="m242.34667,60.37333c-3.41334,-1.70666 -11.09334,-5.12 -19.62667,-10.24c-9.38667,-5.12 -23.89333,3.41334 -33.28,17.92l-16.21333,27.30667c-5.97334,11.94667 -5.12,24.74667 2.56,35.84l0.85333,0.85333c7.68,11.09334 17.92,20.48 20.48,23.89334c1.70667,1.70666 3.41333,5.12 4.26667,7.68c2.56,10.24 -2.56,19.62666 -12.8,22.18666c-9.38667,2.56 -19.62667,-3.41333 -23.04,-12.8c-0.85334,-2.56 -0.85334,-5.12 -0.85334,-7.68c0.85334,-4.26666 -0.85333,-11.09333 -6.82666,-16.21333c-5.97334,-6.82667 -17.92,5.97333 -21.33334,17.92l0,0.85333c-3.41333,12.8 -5.97333,23.04 -5.12,23.89334c0,0.85333 0.85334,1.70666 0.85334,1.70666c5.12,10.24 1.70666,22.18667 -8.53334,27.30667c-10.24,5.12 -23.04,1.70667 -28.16,-8.53333c-5.12,-10.24 -1.70666,-22.18667 8.53334,-27.30667c0.85333,0 0.85333,-0.85333 1.70666,-0.85333c0.85334,0 2.56,-5.97334 5.12,-11.94667c1.70667,-5.97333 3.41334,-11.09333 3.41334,-11.09333c0,-0.85334 0,-1.70667 0.85333,-1.70667l10.24,-35.84l-10.24,21.33333c-1.70667,-4.26666 -3.41333,-4.26666 -8.53333,-0.85333c-2.56,1.70667 -7.68,5.97333 -9.38667,7.68c-4.26667,3.41333 -7.68,9.38667 -9.38667,12.8c-0.85333,2.56 -2.56,4.26667 -4.26666,5.97333c-7.68,6.82667 -19.62667,5.12 -25.6,-2.56c-5.97334,-7.68 -4.26667,-17.92 3.41333,-23.89333c2.56,-1.70667 5.12,-3.41333 7.68,-3.41333c4.26667,-0.85334 20.48,-11.09334 29.86667,-17.06667c1.70666,-0.85333 3.41333,-2.56 4.26666,-3.41333l24.74667,-17.92l-22.18667,11.94666l-5.12,0c-6.82666,0.85334 -15.36,1.70667 -17.06666,4.26667c-0.85334,0.85333 -1.70667,2.56 -3.41334,3.41333c-6.82666,3.41334 -17.06666,1.70667 -23.04,-5.12c-5.12,-7.68 -3.41333,-17.06666 3.41334,-22.18666c4.26666,-2.56 7.68,-3.41334 11.09333,-3.41334c5.97333,0 21.33333,3.41334 34.13333,0.85334l3.41334,-0.85334c12.8,-2.56 28.16,-12.8 34.13333,-24.74666c0,0 5.97333,-11.09334 13.65333,-23.04c7.68,-12.8 6.82667,-26.45334 -0.85333,-31.57334l-14.50667,-8.53333c-7.68,-4.26667 -19.62666,-4.26667 -27.30666,0l-100.69334,55.46667c-7.68,4.26666 -13.65333,15.36 -13.65333,23.89333l0,109.22667c0,8.53333 5.97333,17.92 13.65333,22.18666l101.54667,56.32c7.68,4.26667 19.62667,4.26667 27.30667,0l99.84,-57.17333c7.68,-4.26667 13.65333,-13.65333 13.65333,-22.18667l0,-108.37333c0,-8.53333 -5.97333,-17.92 -13.65333,-22.18667l0,0z"/>
  </g>
 </g>
</svg>